<?xml version="1.0" standalone="no"?><!DOCTYPE svg PUBLIC "-//W3C//DTD SVG 1.1//EN" "http://www.w3.org/Graphics/SVG/1.1/DTD/svg11.dtd"><svg t="1611303746020" class="icon" viewBox="0 0 1024 1024" version="1.1" xmlns="http://www.w3.org/2000/svg" p-id="1115" xmlns:xlink="http://www.w3.org/1999/xlink" width="200" height="200"><defs><style type="text/css"></style></defs><path d="M938.3936 464.896l-158.72 300.35968c-9.96352 21.0944-30.14656 29.16352-39.40352 29.16352l-612.00384 0.13312c-24.77056 0-44.92288-20.15232-44.92288-44.92288l0.77824-385.65888L83.74272 250.05056c-0.03072-5.45792 2.10944-10.69056 5.94944-14.56128 3.85024-3.87072 9.08288-6.0416 14.53056-6.0416l159.1808 0c8.4992 0 16.10752 5.25312 19.13856 13.18912l29.11232 76.41088 174.17216 0c-17.23392 11.264-33.49504 24.96512-48.85504 40.96L297.54368 360.00768c-8.4992 0-16.10752-5.25312-19.13856-13.18912l-29.11232-76.41088L124.29312 270.40768l0.02048 93.44 0 385.78176c0 2.18112 1.78176 3.96288 3.96288 3.96288l48.11776 0L319.09888 464.896c8.05888-16.14848 23.28576-29.16352 39.40352-29.16352l22.74304 0 170.26048 0 35.26656 0c-23.71584 17.29536-33.9968 48.93696-22.97856 77.6192 9.82016 25.53856 34.78528 42.69056 62.12608 42.69056 8.16128 0 16.1792-1.49504 23.8592-4.43392l179.24096-68.84352c21.3504-8.20224 36.05504-26.28608 40.92928-47.03232l39.28064 0C925.3376 435.74272 947.87584 446.6176 938.3936 464.896zM438.91712 409.6l91.8528 0c0.80896 0 1.50528 0.17408 2.28352 0.22528 17.32608-15.88224 35.77856-27.22816 55.296-33.4848 56.33024-18.05312 112.85504 6.8608 145.12128 26.112l-107.48928 41.27744c-18.4832 7.09632-27.70944 27.83232-20.61312 46.30528 5.4784 14.25408 19.05664 22.99904 33.46432 22.99904 4.28032 0 8.62208-0.768 12.8512-2.38592l179.23072-68.84352c18.4832-7.09632 27.70944-27.83232 20.61312-46.30528L782.68416 216.2688c-7.08608-18.4832-27.8528-27.67872-46.30528-20.61312-18.4832 7.09632-27.6992 27.83232-20.60288 46.30528l33.54624 87.3472c-45.13792-22.81472-111.77984-43.73504-182.272-21.42208C517.77536 323.52256 475.00288 357.55008 438.91712 409.6z" p-id="1116" fill="#2c2c2c"></path></svg>