<svg width="543" height="546" viewBox="0 0 543 546" fill="none" xmlns="http://www.w3.org/2000/svg">
<g filter="url(#filter0_d)">
<g filter="url(#filter1_d)">
<path d="M17 217.261C17 145.682 17 109.893 30.8523 82.5532C43.037 58.5047 62.4797 38.9526 86.3936 26.6993C113.58 12.769 149.169 12.769 220.348 12.769H322.021C393.2 12.769 428.789 12.769 455.976 26.6993C479.89 38.9526 499.332 58.5047 511.517 82.5532C525.369 109.893 525.369 145.682 525.369 217.261V319.507C525.369 391.087 525.369 426.876 511.517 454.216C499.332 478.265 479.89 497.816 455.976 510.07C428.789 524 393.2 524 322.021 524H220.348C149.169 524 113.58 524 86.3936 510.07C62.4797 497.816 43.037 478.265 30.8523 454.216C17 426.876 17 391.087 17 319.507V217.261Z" fill="url(#paint0_linear)"/>
<path d="M30.317 82.282C23.3411 96.0503 19.868 111.92 18.1335 133.269C16.4 154.605 16.4 181.467 16.4 217.233V217.261V319.507V319.536C16.4 355.302 16.4 382.164 18.1335 403.5C19.868 424.849 23.3411 440.719 30.317 454.487C42.5589 478.648 62.0929 498.292 86.12 510.604C99.8123 517.619 115.594 521.112 136.824 522.856C158.042 524.6 184.754 524.6 220.32 524.6H220.348H322.021H322.049C357.615 524.6 384.327 524.6 405.545 522.856C426.775 521.112 442.557 517.619 456.249 510.604C480.277 498.292 499.81 478.648 512.052 454.487C519.028 440.719 522.501 424.849 524.236 403.5C525.969 382.163 525.969 355.301 525.969 319.536V319.507V217.261V217.233C525.969 181.467 525.969 154.605 524.236 133.269C522.501 111.92 519.028 96.0503 512.052 82.282C499.81 58.1209 480.277 38.4766 456.249 26.1653C442.557 19.1495 426.775 15.6567 405.545 13.9123C384.327 12.169 357.615 12.169 322.05 12.169H322.021H220.348H220.319C184.754 12.169 158.042 12.169 136.824 13.9123C115.594 15.6567 99.8122 19.1495 86.12 26.1653C62.0929 38.4766 42.5589 58.1209 30.317 82.282Z" stroke="#666666" stroke-opacity="0.5" stroke-width="1.2"/>
</g>
<g filter="url(#filter2_di)">
<mask id="path-3-outside-1" maskUnits="userSpaceOnUse" x="141.18" y="67.8086" width="269" height="406" fill="black">
<rect fill="white" x="141.18" y="67.8086" width="269" height="406"/>
<path d="M159.058 152.585H159.059L159.056 152.58C155.792 146.338 153.853 136.404 154.381 126.286C154.911 116.166 157.908 105.871 164.51 98.9014C165.201 98.1713 165.716 97.6277 166.418 97.1819C167.12 96.7365 168.011 96.3868 169.456 96.0501C170.374 95.8358 171.813 95.8865 173.229 96.1166C174.645 96.3466 176.027 96.7545 176.832 97.2487C179.355 98.7977 180.199 100.595 181.896 104.214L192.827 127.53L192.828 127.532C194.027 130.089 194.927 132.009 195.765 133.473C196.604 134.938 197.384 135.95 198.344 136.691C200.027 137.991 202.079 138.716 204.2 138.761C205.409 138.787 206.647 138.487 208.213 137.872C209.778 137.257 211.675 136.325 214.201 135.085L214.202 135.084L227.861 128.376L227.863 128.375C230.09 127.281 231.764 126.459 233.052 125.697C234.341 124.935 235.249 124.232 235.942 123.373C237.163 121.863 237.92 120.028 238.119 118.092C238.233 116.991 238.087 115.849 237.712 114.393C237.337 112.938 236.733 111.167 235.929 108.808V108.806L227.65 84.5352C226.447 81.0074 225.849 79.2552 226.504 76.4662C226.711 75.58 227.363 74.3408 228.154 73.1934C228.946 72.0461 229.872 70.9985 230.625 70.4922C231.812 69.6929 232.638 69.2888 233.4 69.0774C234.162 68.866 234.862 68.8464 235.803 68.8204C236.135 68.8112 236.47 68.8074 236.804 68.8089C246.875 68.8539 257.877 73.6218 266.948 80.5277C276.018 87.4338 283.149 96.4724 285.483 105.051L285.483 105.052C285.711 105.889 285.825 106.308 285.864 106.44C285.899 106.554 285.908 106.585 285.918 106.616C285.928 106.647 285.939 106.677 285.977 106.79C286.021 106.919 286.128 107.206 286.34 107.774L286.343 107.783C289.503 116.256 289.155 122.942 287.173 128.355C285.19 133.769 281.569 137.913 278.175 141.297L278.173 141.299C277.432 142.037 277.06 142.408 276.752 142.781C276.485 143.105 276.221 143.47 275.998 143.826C275.74 144.234 275.559 144.596 275.2 145.313L275.199 145.315C270.8 154.079 268.683 161.845 268.001 172.9L268 172.902C267.929 174.064 267.893 174.649 267.944 175.337C267.987 175.911 268.101 176.591 268.248 177.147C268.425 177.814 268.676 178.421 269.178 179.626L269.18 179.629L347.077 366.652L347.078 366.655C347.545 367.778 347.782 368.343 348.093 368.887C348.358 369.35 348.699 369.848 349.037 370.261C349.434 370.744 349.838 371.129 350.643 371.894L350.646 371.896C353.596 374.7 356.113 376.787 359.068 378.278C362.023 379.769 365.415 380.663 370.115 381.086H370.116C370.452 381.108 370.785 381.129 371.115 381.151C376.668 381.51 381.292 381.809 385.2 382.314C389.341 382.849 392.677 383.614 395.461 384.922C401.025 387.538 404.397 392.333 407.58 401.847C407.703 402.214 407.764 402.396 407.833 402.645C407.885 402.83 407.955 403.122 407.994 403.312C408.046 403.564 408.074 403.748 408.131 404.119C410.688 420.938 407.142 434.612 399.784 445.47C392.424 456.331 381.248 464.38 368.538 469.943H368.537C368.118 470.127 367.91 470.217 367.628 470.321C367.413 470.4 367.09 470.504 366.869 470.566C366.58 470.645 366.357 470.693 365.907 470.789C351.594 473.834 339.038 473.138 328.072 468.86C317.108 464.582 307.731 456.723 299.781 445.436L299.779 445.433C299.461 444.982 299.301 444.754 299.197 444.617C299.101 444.49 299.08 444.461 299.058 444.434C299.036 444.406 299.013 444.379 298.911 444.257C298.8 444.124 298.315 443.581 297.348 442.497L297.346 442.495C293.613 438.31 291.811 432.527 291.842 426.864C291.872 421.201 293.735 415.664 297.325 411.97L297.338 411.956C300.248 408.962 301.707 407.461 301.991 407.11C302.121 406.949 302.202 406.852 302.26 406.781C302.308 406.722 302.339 406.682 302.369 406.641C302.41 406.584 302.447 406.524 302.522 406.404C302.563 406.336 302.618 406.249 302.69 406.133C302.93 405.75 303.055 405.505 303.302 405.019L303.303 405.018C306.081 399.562 308.557 393.145 308.714 385.767C308.731 384.971 308.739 384.57 308.643 383.823C308.575 383.285 308.366 382.387 308.192 381.874C307.951 381.161 307.673 380.623 307.123 379.557L307.122 379.555L279.121 325.326L279.12 325.324C276.717 320.671 274.914 317.178 273.318 314.671C271.721 312.165 270.328 310.637 268.74 309.921C265.989 308.679 262.825 308.758 260.137 310.136C258.588 310.93 257.271 312.527 255.801 315.11C254.33 317.694 252.701 321.271 250.532 326.038L250.531 326.041L201.955 432.786C200.441 436.111 199.689 437.765 198.52 438.982C197.487 440.062 196.223 440.89 194.826 441.408C193.246 441.994 191.438 442.021 187.802 442.076L166.767 442.393H166.766C160.841 442.483 156.4 442.55 153.114 442.371C149.826 442.191 147.705 441.766 146.416 440.877C143.979 439.199 142.671 437.099 142.232 434.162C141.999 432.607 142.55 430.488 143.838 427.405C145.126 424.323 147.145 420.287 149.839 414.905C174.97 364.686 224.823 262.692 236.87 238.025L236.873 238.02C237.849 236.023 238.34 235.017 238.598 233.939C238.826 232.984 238.913 231.998 238.857 231.016C238.793 229.909 238.481 228.814 237.862 226.635L237.86 226.629L229.644 197.736L229.642 197.729C229.082 195.759 228.8 194.769 228.435 194.004C228.061 193.222 227.781 192.773 227.244 192.095C226.718 191.432 225.844 190.648 224.107 189.087L224.101 189.082C219.383 184.847 213.491 179.727 202.574 178.264V178.263H202.57C201.2 178.192 199.845 178.135 198.509 178.077C190.914 177.752 183.879 177.45 177.614 174.872C170.251 171.842 163.946 165.664 159.058 152.585ZM361.472 395.436L342.099 394.685H342.09C338.859 394.559 337.233 394.496 335.75 394.905C334.438 395.267 333.213 395.895 332.152 396.752C330.953 397.72 330.049 399.081 328.255 401.786L328.25 401.794L319.663 414.738L319.656 414.749C317.374 418.189 316.224 419.92 315.826 421.781C315.473 423.424 315.536 425.13 316.011 426.741C316.549 428.566 317.823 430.205 320.356 433.464L320.364 433.474L329.039 444.631L329.045 444.638C330.735 446.811 331.585 447.905 332.647 448.704C333.587 449.411 334.643 449.947 335.769 450.284C337.038 450.665 338.419 450.701 341.162 450.77H341.17L360.946 451.275H360.957C364.459 451.365 366.222 451.41 367.797 450.914C369.191 450.476 370.471 449.735 371.548 448.744C372.766 447.624 373.614 446.069 375.297 442.979L375.303 442.969L382.155 430.393L382.16 430.384C383.82 427.339 384.655 425.807 384.942 424.193C385.196 422.767 385.139 421.302 384.775 419.899C384.363 418.314 383.411 416.851 381.52 413.947L381.514 413.938L374.17 402.66L374.165 402.652C372.528 400.137 371.704 398.872 370.613 397.937C369.647 397.11 368.532 396.476 367.33 396.07C365.971 395.61 364.468 395.552 361.48 395.437L361.472 395.436Z"/>
</mask>
<path d="M159.058 152.585H159.059L159.056 152.58C155.792 146.338 153.853 136.404 154.381 126.286C154.911 116.166 157.908 105.871 164.51 98.9014C165.201 98.1713 165.716 97.6277 166.418 97.1819C167.12 96.7365 168.011 96.3868 169.456 96.0501C170.374 95.8358 171.813 95.8865 173.229 96.1166C174.645 96.3466 176.027 96.7545 176.832 97.2487C179.355 98.7977 180.199 100.595 181.896 104.214L192.827 127.53L192.828 127.532C194.027 130.089 194.927 132.009 195.765 133.473C196.604 134.938 197.384 135.95 198.344 136.691C200.027 137.991 202.079 138.716 204.2 138.761C205.409 138.787 206.647 138.487 208.213 137.872C209.778 137.257 211.675 136.325 214.201 135.085L214.202 135.084L227.861 128.376L227.863 128.375C230.09 127.281 231.764 126.459 233.052 125.697C234.341 124.935 235.249 124.232 235.942 123.373C237.163 121.863 237.92 120.028 238.119 118.092C238.233 116.991 238.087 115.849 237.712 114.393C237.337 112.938 236.733 111.167 235.929 108.808V108.806L227.65 84.5352C226.447 81.0074 225.849 79.2552 226.504 76.4662C226.711 75.58 227.363 74.3408 228.154 73.1934C228.946 72.0461 229.872 70.9985 230.625 70.4922C231.812 69.6929 232.638 69.2888 233.4 69.0774C234.162 68.866 234.862 68.8464 235.803 68.8204C236.135 68.8112 236.47 68.8074 236.804 68.8089C246.875 68.8539 257.877 73.6218 266.948 80.5277C276.018 87.4338 283.149 96.4724 285.483 105.051L285.483 105.052C285.711 105.889 285.825 106.308 285.864 106.44C285.899 106.554 285.908 106.585 285.918 106.616C285.928 106.647 285.939 106.677 285.977 106.79C286.021 106.919 286.128 107.206 286.34 107.774L286.343 107.783C289.503 116.256 289.155 122.942 287.173 128.355C285.19 133.769 281.569 137.913 278.175 141.297L278.173 141.299C277.432 142.037 277.06 142.408 276.752 142.781C276.485 143.105 276.221 143.47 275.998 143.826C275.74 144.234 275.559 144.596 275.2 145.313L275.199 145.315C270.8 154.079 268.683 161.845 268.001 172.9L268 172.902C267.929 174.064 267.893 174.649 267.944 175.337C267.987 175.911 268.101 176.591 268.248 177.147C268.425 177.814 268.676 178.421 269.178 179.626L269.18 179.629L347.077 366.652L347.078 366.655C347.545 367.778 347.782 368.343 348.093 368.887C348.358 369.35 348.699 369.848 349.037 370.261C349.434 370.744 349.838 371.129 350.643 371.894L350.646 371.896C353.596 374.7 356.113 376.787 359.068 378.278C362.023 379.769 365.415 380.663 370.115 381.086H370.116C370.452 381.108 370.785 381.129 371.115 381.151C376.668 381.51 381.292 381.809 385.2 382.314C389.341 382.849 392.677 383.614 395.461 384.922C401.025 387.538 404.397 392.333 407.58 401.847C407.703 402.214 407.764 402.396 407.833 402.645C407.885 402.83 407.955 403.122 407.994 403.312C408.046 403.564 408.074 403.748 408.131 404.119C410.688 420.938 407.142 434.612 399.784 445.47C392.424 456.331 381.248 464.38 368.538 469.943H368.537C368.118 470.127 367.91 470.217 367.628 470.321C367.413 470.4 367.09 470.504 366.869 470.566C366.58 470.645 366.357 470.693 365.907 470.789C351.594 473.834 339.038 473.138 328.072 468.86C317.108 464.582 307.731 456.723 299.781 445.436L299.779 445.433C299.461 444.982 299.301 444.754 299.197 444.617C299.101 444.49 299.08 444.461 299.058 444.434C299.036 444.406 299.013 444.379 298.911 444.257C298.8 444.124 298.315 443.581 297.348 442.497L297.346 442.495C293.613 438.31 291.811 432.527 291.842 426.864C291.872 421.201 293.735 415.664 297.325 411.97L297.338 411.956C300.248 408.962 301.707 407.461 301.991 407.11C302.121 406.949 302.202 406.852 302.26 406.781C302.308 406.722 302.339 406.682 302.369 406.641C302.41 406.584 302.447 406.524 302.522 406.404C302.563 406.336 302.618 406.249 302.69 406.133C302.93 405.75 303.055 405.505 303.302 405.019L303.303 405.018C306.081 399.562 308.557 393.145 308.714 385.767C308.731 384.971 308.739 384.57 308.643 383.823C308.575 383.285 308.366 382.387 308.192 381.874C307.951 381.161 307.673 380.623 307.123 379.557L307.122 379.555L279.121 325.326L279.12 325.324C276.717 320.671 274.914 317.178 273.318 314.671C271.721 312.165 270.328 310.637 268.74 309.921C265.989 308.679 262.825 308.758 260.137 310.136C258.588 310.93 257.271 312.527 255.801 315.11C254.33 317.694 252.701 321.271 250.532 326.038L250.531 326.041L201.955 432.786C200.441 436.111 199.689 437.765 198.52 438.982C197.487 440.062 196.223 440.89 194.826 441.408C193.246 441.994 191.438 442.021 187.802 442.076L166.767 442.393H166.766C160.841 442.483 156.4 442.55 153.114 442.371C149.826 442.191 147.705 441.766 146.416 440.877C143.979 439.199 142.671 437.099 142.232 434.162C141.999 432.607 142.55 430.488 143.838 427.405C145.126 424.323 147.145 420.287 149.839 414.905C174.97 364.686 224.823 262.692 236.87 238.025L236.873 238.02C237.849 236.023 238.34 235.017 238.598 233.939C238.826 232.984 238.913 231.998 238.857 231.016C238.793 229.909 238.481 228.814 237.862 226.635L237.86 226.629L229.644 197.736L229.642 197.729C229.082 195.759 228.8 194.769 228.435 194.004C228.061 193.222 227.781 192.773 227.244 192.095C226.718 191.432 225.844 190.648 224.107 189.087L224.101 189.082C219.383 184.847 213.491 179.727 202.574 178.264V178.263H202.57C201.2 178.192 199.845 178.135 198.509 178.077C190.914 177.752 183.879 177.45 177.614 174.872C170.251 171.842 163.946 165.664 159.058 152.585ZM361.472 395.436L342.099 394.685H342.09C338.859 394.559 337.233 394.496 335.75 394.905C334.438 395.267 333.213 395.895 332.152 396.752C330.953 397.72 330.049 399.081 328.255 401.786L328.25 401.794L319.663 414.738L319.656 414.749C317.374 418.189 316.224 419.92 315.826 421.781C315.473 423.424 315.536 425.13 316.011 426.741C316.549 428.566 317.823 430.205 320.356 433.464L320.364 433.474L329.039 444.631L329.045 444.638C330.735 446.811 331.585 447.905 332.647 448.704C333.587 449.411 334.643 449.947 335.769 450.284C337.038 450.665 338.419 450.701 341.162 450.77H341.17L360.946 451.275H360.957C364.459 451.365 366.222 451.41 367.797 450.914C369.191 450.476 370.471 449.735 371.548 448.744C372.766 447.624 373.614 446.069 375.297 442.979L375.303 442.969L382.155 430.393L382.16 430.384C383.82 427.339 384.655 425.807 384.942 424.193C385.196 422.767 385.139 421.302 384.775 419.899C384.363 418.314 383.411 416.851 381.52 413.947L381.514 413.938L374.17 402.66L374.165 402.652C372.528 400.137 371.704 398.872 370.613 397.937C369.647 397.11 368.532 396.476 367.33 396.07C365.971 395.61 364.468 395.552 361.48 395.437L361.472 395.436Z" fill="white"/>
<path d="M159.058 152.585H159.059L159.056 152.58C155.792 146.338 153.853 136.404 154.381 126.286C154.911 116.166 157.908 105.871 164.51 98.9014C165.201 98.1713 165.716 97.6277 166.418 97.1819C167.12 96.7365 168.011 96.3868 169.456 96.0501C170.374 95.8358 171.813 95.8865 173.229 96.1166C174.645 96.3466 176.027 96.7545 176.832 97.2487C179.355 98.7977 180.199 100.595 181.896 104.214L192.827 127.53L192.828 127.532C194.027 130.089 194.927 132.009 195.765 133.473C196.604 134.938 197.384 135.95 198.344 136.691C200.027 137.991 202.079 138.716 204.2 138.761C205.409 138.787 206.647 138.487 208.213 137.872C209.778 137.257 211.675 136.325 214.201 135.085L214.202 135.084L227.861 128.376L227.863 128.375C230.09 127.281 231.764 126.459 233.052 125.697C234.341 124.935 235.249 124.232 235.942 123.373C237.163 121.863 237.92 120.028 238.119 118.092C238.233 116.991 238.087 115.849 237.712 114.393C237.337 112.938 236.733 111.167 235.929 108.808V108.806L227.65 84.5352C226.447 81.0074 225.849 79.2552 226.504 76.4662C226.711 75.58 227.363 74.3408 228.154 73.1934C228.946 72.0461 229.872 70.9985 230.625 70.4922C231.812 69.6929 232.638 69.2888 233.4 69.0774C234.162 68.866 234.862 68.8464 235.803 68.8204C236.135 68.8112 236.47 68.8074 236.804 68.8089C246.875 68.8539 257.877 73.6218 266.948 80.5277C276.018 87.4338 283.149 96.4724 285.483 105.051L285.483 105.052C285.711 105.889 285.825 106.308 285.864 106.44C285.899 106.554 285.908 106.585 285.918 106.616C285.928 106.647 285.939 106.677 285.977 106.79C286.021 106.919 286.128 107.206 286.34 107.774L286.343 107.783C289.503 116.256 289.155 122.942 287.173 128.355C285.19 133.769 281.569 137.913 278.175 141.297L278.173 141.299C277.432 142.037 277.06 142.408 276.752 142.781C276.485 143.105 276.221 143.47 275.998 143.826C275.74 144.234 275.559 144.596 275.2 145.313L275.199 145.315C270.8 154.079 268.683 161.845 268.001 172.9L268 172.902C267.929 174.064 267.893 174.649 267.944 175.337C267.987 175.911 268.101 176.591 268.248 177.147C268.425 177.814 268.676 178.421 269.178 179.626L269.18 179.629L347.077 366.652L347.078 366.655C347.545 367.778 347.782 368.343 348.093 368.887C348.358 369.35 348.699 369.848 349.037 370.261C349.434 370.744 349.838 371.129 350.643 371.894L350.646 371.896C353.596 374.7 356.113 376.787 359.068 378.278C362.023 379.769 365.415 380.663 370.115 381.086H370.116C370.452 381.108 370.785 381.129 371.115 381.151C376.668 381.51 381.292 381.809 385.2 382.314C389.341 382.849 392.677 383.614 395.461 384.922C401.025 387.538 404.397 392.333 407.58 401.847C407.703 402.214 407.764 402.396 407.833 402.645C407.885 402.83 407.955 403.122 407.994 403.312C408.046 403.564 408.074 403.748 408.131 404.119C410.688 420.938 407.142 434.612 399.784 445.47C392.424 456.331 381.248 464.38 368.538 469.943H368.537C368.118 470.127 367.91 470.217 367.628 470.321C367.413 470.4 367.09 470.504 366.869 470.566C366.58 470.645 366.357 470.693 365.907 470.789C351.594 473.834 339.038 473.138 328.072 468.86C317.108 464.582 307.731 456.723 299.781 445.436L299.779 445.433C299.461 444.982 299.301 444.754 299.197 444.617C299.101 444.49 299.08 444.461 299.058 444.434C299.036 444.406 299.013 444.379 298.911 444.257C298.8 444.124 298.315 443.581 297.348 442.497L297.346 442.495C293.613 438.31 291.811 432.527 291.842 426.864C291.872 421.201 293.735 415.664 297.325 411.97L297.338 411.956C300.248 408.962 301.707 407.461 301.991 407.11C302.121 406.949 302.202 406.852 302.26 406.781C302.308 406.722 302.339 406.682 302.369 406.641C302.41 406.584 302.447 406.524 302.522 406.404C302.563 406.336 302.618 406.249 302.69 406.133C302.93 405.75 303.055 405.505 303.302 405.019L303.303 405.018C306.081 399.562 308.557 393.145 308.714 385.767C308.731 384.971 308.739 384.57 308.643 383.823C308.575 383.285 308.366 382.387 308.192 381.874C307.951 381.161 307.673 380.623 307.123 379.557L307.122 379.555L279.121 325.326L279.12 325.324C276.717 320.671 274.914 317.178 273.318 314.671C271.721 312.165 270.328 310.637 268.74 309.921C265.989 308.679 262.825 308.758 260.137 310.136C258.588 310.93 257.271 312.527 255.801 315.11C254.33 317.694 252.701 321.271 250.532 326.038L250.531 326.041L201.955 432.786C200.441 436.111 199.689 437.765 198.52 438.982C197.487 440.062 196.223 440.89 194.826 441.408C193.246 441.994 191.438 442.021 187.802 442.076L166.767 442.393H166.766C160.841 442.483 156.4 442.55 153.114 442.371C149.826 442.191 147.705 441.766 146.416 440.877C143.979 439.199 142.671 437.099 142.232 434.162C141.999 432.607 142.55 430.488 143.838 427.405C145.126 424.323 147.145 420.287 149.839 414.905C174.97 364.686 224.823 262.692 236.87 238.025L236.873 238.02C237.849 236.023 238.34 235.017 238.598 233.939C238.826 232.984 238.913 231.998 238.857 231.016C238.793 229.909 238.481 228.814 237.862 226.635L237.86 226.629L229.644 197.736L229.642 197.729C229.082 195.759 228.8 194.769 228.435 194.004C228.061 193.222 227.781 192.773 227.244 192.095C226.718 191.432 225.844 190.648 224.107 189.087L224.101 189.082C219.383 184.847 213.491 179.727 202.574 178.264V178.263H202.57C201.2 178.192 199.845 178.135 198.509 178.077C190.914 177.752 183.879 177.45 177.614 174.872C170.251 171.842 163.946 165.664 159.058 152.585ZM361.472 395.436L342.099 394.685H342.09C338.859 394.559 337.233 394.496 335.75 394.905C334.438 395.267 333.213 395.895 332.152 396.752C330.953 397.72 330.049 399.081 328.255 401.786L328.25 401.794L319.663 414.738L319.656 414.749C317.374 418.189 316.224 419.92 315.826 421.781C315.473 423.424 315.536 425.13 316.011 426.741C316.549 428.566 317.823 430.205 320.356 433.464L320.364 433.474L329.039 444.631L329.045 444.638C330.735 446.811 331.585 447.905 332.647 448.704C333.587 449.411 334.643 449.947 335.769 450.284C337.038 450.665 338.419 450.701 341.162 450.77H341.17L360.946 451.275H360.957C364.459 451.365 366.222 451.41 367.797 450.914C369.191 450.476 370.471 449.735 371.548 448.744C372.766 447.624 373.614 446.069 375.297 442.979L375.303 442.969L382.155 430.393L382.16 430.384C383.82 427.339 384.655 425.807 384.942 424.193C385.196 422.767 385.139 421.302 384.775 419.899C384.363 418.314 383.411 416.851 381.52 413.947L381.514 413.938L374.17 402.66L374.165 402.652C372.528 400.137 371.704 398.872 370.613 397.937C369.647 397.11 368.532 396.476 367.33 396.07C365.971 395.61 364.468 395.552 361.48 395.437L361.472 395.436Z" stroke="#E1E1E1" mask="url(#path-3-outside-1)"/>
</g>
</g>
<defs>
<filter id="filter0_d" x="1.80005" y="0.569092" width="540.769" height="543.631" filterUnits="userSpaceOnUse" color-interpolation-filters="sRGB">
<feFlood flood-opacity="0" result="BackgroundImageFix"/>
<feColorMatrix in="SourceAlpha" type="matrix" values="0 0 0 0 0 0 0 0 0 0 0 0 0 0 0 0 0 0 127 0"/>
<feOffset dx="1" dy="4"/>
<feGaussianBlur stdDeviation="7.5"/>
<feColorMatrix type="matrix" values="0 0 0 0 0 0 0 0 0 0 0 0 0 0 0 0 0 0 0.3 0"/>
<feBlend mode="normal" in2="BackgroundImageFix" result="effect1_dropShadow"/>
<feBlend mode="normal" in="SourceGraphic" in2="effect1_dropShadow" result="shape"/>
</filter>
<filter id="filter1_d" x="0.800049" y="1.56909" width="540.769" height="543.631" filterUnits="userSpaceOnUse" color-interpolation-filters="sRGB">
<feFlood flood-opacity="0" result="BackgroundImageFix"/>
<feColorMatrix in="SourceAlpha" type="matrix" values="0 0 0 0 0 0 0 0 0 0 0 0 0 0 0 0 0 0 127 0"/>
<feOffset dy="5"/>
<feGaussianBlur stdDeviation="7.5"/>
<feColorMatrix type="matrix" values="0 0 0 0 0 0 0 0 0 0 0 0 0 0 0 0 0 0 0.06 0"/>
<feBlend mode="normal" in2="BackgroundImageFix" result="effect1_dropShadow"/>
<feBlend mode="normal" in="SourceGraphic" in2="effect1_dropShadow" result="shape"/>
</filter>
<filter id="filter2_di" x="136.68" y="65.3086" width="283.777" height="420.85" filterUnits="userSpaceOnUse" color-interpolation-filters="sRGB">
<feFlood flood-opacity="0" result="BackgroundImageFix"/>
<feColorMatrix in="SourceAlpha" type="matrix" values="0 0 0 0 0 0 0 0 0 0 0 0 0 0 0 0 0 0 127 0"/>
<feOffset dx="3" dy="5"/>
<feGaussianBlur stdDeviation="4"/>
<feColorMatrix type="matrix" values="0 0 0 0 0 0 0 0 0 0 0 0 0 0 0 0 0 0 0.25 0"/>
<feBlend mode="normal" in2="BackgroundImageFix" result="effect1_dropShadow"/>
<feBlend mode="normal" in="SourceGraphic" in2="effect1_dropShadow" result="shape"/>
<feColorMatrix in="SourceAlpha" type="matrix" values="0 0 0 0 0 0 0 0 0 0 0 0 0 0 0 0 0 0 127 0" result="hardAlpha"/>
<feOffset dx="2" dy="5"/>
<feGaussianBlur stdDeviation="3.5"/>
<feComposite in2="hardAlpha" operator="arithmetic" k2="-1" k3="1"/>
<feColorMatrix type="matrix" values="0 0 0 0 0 0 0 0 0 0 0 0 0 0 0 0 0 0 0.25 0"/>
<feBlend mode="normal" in2="shape" result="effect2_innerShadow"/>
</filter>
<linearGradient id="paint0_linear" x1="271.185" y1="12.769" x2="271.185" y2="524" gradientUnits="userSpaceOnUse">
<stop stop-color="#E46060"/>
<stop offset="1" stop-color="#C671E3" stop-opacity="0.76"/>
</linearGradient>
</defs>
</svg>
